<?xml version="1.0" encoding="utf-8"?>
<!-- Generator: Adobe Illustrator 16.0.0, SVG Export Plug-In . SVG Version: 6.00 Build 0)  -->
<!DOCTYPE svg PUBLIC "-//W3C//DTD SVG 1.1//EN" "http://www.w3.org/Graphics/SVG/1.1/DTD/svg11.dtd">
<svg version="1.1" id="Layer_1" xmlns="http://www.w3.org/2000/svg" xmlns:xlink="http://www.w3.org/1999/xlink" x="0px" y="0px"
	 width="330px" height="93px" viewBox="0 0 330 93" enable-background="new 0 0 330 93" xml:space="preserve">
<g>
	<path d="M178.615,21.204c0,0.669,0.223,1.414,0.744,1.934l11.457,11.458h-57.957c-1.488,0-2.679,1.19-2.679,2.678
		s1.19,2.678,2.679,2.678h57.957l-11.457,11.309c-0.521,0.521-0.744,1.19-0.744,1.934c0,0.744,0.223,1.414,0.744,1.936
		c1.041,1.041,2.827,1.041,3.795,0l15.921-15.922c0.074-0.075,0.224-0.298,0.298-0.447c0.521-0.744,0.521-1.711,0.223-2.455
		c-0.074-0.297-0.297-0.669-0.521-0.893l0,0L183.154,19.27c-1.043-1.042-2.828-1.042-3.795,0
		C178.838,19.791,178.615,20.46,178.615,21.204z"/>
</g>
</svg>
