<?xml version="1.0" encoding="utf-8"?>
<!-- Generator: Adobe Illustrator 16.0.0, SVG Export Plug-In . SVG Version: 6.00 Build 0)  -->
<!DOCTYPE svg PUBLIC "-//W3C//DTD SVG 1.1//EN" "http://www.w3.org/Graphics/SVG/1.1/DTD/svg11.dtd">
<svg version="1.1" id="Layer_1" xmlns="http://www.w3.org/2000/svg" xmlns:xlink="http://www.w3.org/1999/xlink" x="0px" y="0px"
	 width="330px" height="93px" viewBox="0 0 330 93" enable-background="new 0 0 330 93" xml:space="preserve">
<g>
	<g>
		<path d="M165,15.401c12.053,0,21.799,9.747,21.799,21.799S177.053,58.999,165,58.999s-21.799-9.746-21.799-21.799
			S152.947,15.401,165,15.401 M165,11.16c-14.359,0-26.04,11.681-26.04,26.04c0,14.358,11.681,26.04,26.04,26.04
			s26.04-11.682,26.04-26.04C191.04,22.841,179.359,11.16,165,11.16L165,11.16z"/>
		<path d="M167.977,26.114l-0.596,14.806c-0.074,1.19-1.041,2.083-2.158,2.009c-1.116-0.074-2.009-0.967-2.009-2.009l-0.595-14.806
			c-0.074-1.488,1.116-2.752,2.604-2.752s2.753,1.116,2.753,2.604C167.977,25.966,167.977,26.04,167.977,26.114z"/>
		<circle cx="165.298" cy="48.509" r="2.827"/>
	</g>
</g>
</svg>
