<?xml version="1.0" encoding="utf-8"?>
<!-- Generator: Adobe Illustrator 16.0.0, SVG Export Plug-In . SVG Version: 6.00 Build 0)  -->
<!DOCTYPE svg PUBLIC "-//W3C//DTD SVG 1.1//EN" "http://www.w3.org/Graphics/SVG/1.1/DTD/svg11.dtd">
<svg version="1.1" id="Layer_1" xmlns="http://www.w3.org/2000/svg" xmlns:xlink="http://www.w3.org/1999/xlink" x="0px" y="0px"
	 width="330px" height="93px" viewBox="0 0 330 93" enable-background="new 0 0 330 93" xml:space="preserve">
<path d="M165,0.818c-20.088,0-36.53,16.368-36.53,36.53c0,20.163,16.368,36.53,36.53,36.53c20.162,0,36.53-16.367,36.53-36.53
	C201.53,17.187,185.162,0.818,165,0.818z M165,68.849c-17.372,0-31.5-14.129-31.5-31.5c0-17.372,14.128-31.5,31.5-31.5
	c17.371,0,31.5,14.128,31.5,31.5C196.5,54.72,182.371,68.849,165,68.849z"/>
<path d="M177.777,38.403h-10.506c1.703-0.71,3.551-1.705,4.971-2.84h5.535c1.137,0,2.133-0.994,2.133-2.13
	c0-1.136-0.996-2.13-2.133-2.13h-2.129c0.426-0.994,0.711-2.272,0.711-3.55c0-5.537-4.971-9.939-11.36-9.939
	c-5.537,0-9.371,2.556-10.934,4.828c-0.709,0.993-0.426,2.272,0.569,2.982c0.994,0.709,2.271,0.426,2.982-0.568
	c0.71-0.994,3.124-2.982,7.383-2.982c4.403,0,7.101,2.84,7.101,5.68c0,1.42-0.429,2.556-1.421,3.55H152.22
	c-1.136,0-2.13,0.994-2.13,2.13c0,1.136,0.994,2.13,2.13,2.13h10.933c-1.846,0.852-3.691,1.704-5.254,2.84h-5.679
	c-1.136,0-2.13,0.994-2.13,2.129c0,1.135,0.994,2.13,2.13,2.13h2.129c-0.426,0.996-0.71,2.272-0.71,3.549
	c0,5.54,4.97,9.941,11.36,9.941c5.68,0,9.512-2.698,10.932-4.971c0.711-0.993,0.428-2.271-0.566-2.981s-2.273-0.427-2.981,0.568
	c-0.712,1.137-3.124,3.124-7.384,3.124c-4.402,0-7.1-2.841-7.1-5.681c0-1.418,0.568-2.553,1.563-3.549h18.315
	c1.137,0,2.133-0.995,2.133-2.13C179.91,39.397,178.914,38.403,177.777,38.403z"/>
</svg>
