<?xml version="1.0" encoding="utf-8"?>
<!-- Generator: Adobe Illustrator 16.0.0, SVG Export Plug-In . SVG Version: 6.00 Build 0)  -->
<!DOCTYPE svg PUBLIC "-//W3C//DTD SVG 1.1//EN" "http://www.w3.org/Graphics/SVG/1.1/DTD/svg11.dtd">
<svg version="1.1" id="Layer_1" xmlns="http://www.w3.org/2000/svg" xmlns:xlink="http://www.w3.org/1999/xlink" x="0px" y="0px"
	 width="330px" height="93px" viewBox="0 0 330 93" enable-background="new 0 0 330 93" xml:space="preserve">
<path d="M197.002,22.376c-0.349-0.491-0.914-0.784-1.517-0.784h-48.917l-3.286-12.547c-0.214-0.819-0.954-1.389-1.8-1.389h-6.968
	c-1.027,0-1.86,0.833-1.86,1.86s0.833,1.86,1.86,1.86h5.532l10.555,40.303c0.213,0.819,0.953,1.389,1.799,1.389h33.794
	c1.027,0,1.86-0.832,1.86-1.859s-0.833-1.86-1.86-1.86h-32.359l-1.337-5.106h36.368c0.79,0,1.495-0.5,1.756-1.247l6.618-18.929
	C197.439,23.498,197.351,22.868,197.002,22.376z M187.547,40.522h-36.022l-3.983-15.209h45.322L187.547,40.522z M158.228,54.617
	c-3.343,0-6.062,2.72-6.062,6.062s2.719,6.062,6.062,6.062s6.062-2.72,6.062-6.062S161.572,54.617,158.228,54.617z M158.228,63.023
	c-1.292,0-2.342-1.051-2.342-2.343s1.05-2.343,2.342-2.343s2.342,1.051,2.342,2.343S159.521,63.023,158.228,63.023z M177.713,54.617
	c-3.342,0-6.062,2.72-6.062,6.062s2.72,6.062,6.062,6.062c3.344,0,6.064-2.72,6.064-6.062S181.057,54.617,177.713,54.617z
	 M177.713,63.023c-1.291,0-2.342-1.051-2.342-2.343s1.051-2.343,2.342-2.343c1.293,0,2.344,1.051,2.344,2.343
	S179.006,63.023,177.713,63.023z"/>
</svg>
