<?xml version="1.0" encoding="utf-8"?>
<!-- Generator: Adobe Illustrator 16.0.0, SVG Export Plug-In . SVG Version: 6.00 Build 0)  -->
<!DOCTYPE svg PUBLIC "-//W3C//DTD SVG 1.1//EN" "http://www.w3.org/Graphics/SVG/1.1/DTD/svg11.dtd">
<svg version="1.1" id="Layer_1" xmlns="http://www.w3.org/2000/svg" xmlns:xlink="http://www.w3.org/1999/xlink" x="0px" y="0px"
	 width="330px" height="93px" viewBox="0 0 330 93" enable-background="new 0 0 330 93" xml:space="preserve">
<g>
	<path d="M158.228,54.617c-3.343,0-6.062,2.72-6.062,6.062c0,3.342,2.719,6.062,6.062,6.062c3.343,0,6.062-2.72,6.062-6.062
		C164.29,57.337,161.572,54.617,158.228,54.617z M158.228,63.023c-1.292,0-2.342-1.051-2.342-2.344c0-1.291,1.05-2.343,2.342-2.343
		s2.342,1.052,2.342,2.343C160.57,61.973,159.521,63.023,158.228,63.023z"/>
	<path d="M177.713,54.617c-3.342,0-6.062,2.72-6.062,6.062c0,3.342,2.721,6.062,6.062,6.062c3.344,0,6.064-2.72,6.064-6.062
		C183.777,57.337,181.057,54.617,177.713,54.617z M177.713,63.023c-1.291,0-2.342-1.051-2.342-2.344
		c0-1.291,1.051-2.343,2.342-2.343c1.293,0,2.344,1.052,2.344,2.343C180.057,61.973,179.006,63.023,177.713,63.023z"/>
	<path d="M197.002,22.376c-0.35-0.491-0.914-0.784-1.518-0.784h-7.317v3.721h4.696l-5.316,15.209h-36.022l-3.983-15.209h4.446
		v-3.721h-5.42l-3.286-12.547c-0.214-0.819-0.954-1.389-1.8-1.389h-6.968c-1.027,0-1.86,0.833-1.86,1.86s0.833,1.86,1.86,1.86h5.532
		l10.555,40.304c0.213,0.818,0.953,1.389,1.799,1.389h33.793c1.027,0,1.861-0.832,1.861-1.859s-0.834-1.859-1.861-1.859h-32.358
		l-1.337-5.106h36.367c0.791,0,1.496-0.5,1.757-1.247l6.618-18.929C197.439,23.498,197.352,22.868,197.002,22.376z"/>
</g>
<path d="M181.018,19.962c-0.464,0-0.979,0.155-1.34,0.516l-7.944,7.944V8.656h-3.714v19.766l-7.84-7.944
	c-0.362-0.36-0.826-0.516-1.341-0.516c-0.517,0-0.98,0.155-1.341,0.516c-0.723,0.722-0.723,1.961,0,2.631l11.04,11.039
	c0.051,0.052,0.206,0.154,0.31,0.206c0.514,0.361,1.186,0.361,1.701,0.155c0.206-0.052,0.465-0.207,0.618-0.361l11.195-11.039
	c0.723-0.722,0.723-1.96,0-2.631C181.999,20.118,181.534,19.962,181.018,19.962z"/>
</svg>
