<?xml version="1.0" encoding="utf-8"?>
<!-- Generator: Adobe Illustrator 16.0.0, SVG Export Plug-In . SVG Version: 6.00 Build 0)  -->
<!DOCTYPE svg PUBLIC "-//W3C//DTD SVG 1.1//EN" "http://www.w3.org/Graphics/SVG/1.1/DTD/svg11.dtd">
<svg version="1.1" id="Layer_1" xmlns="http://www.w3.org/2000/svg" xmlns:xlink="http://www.w3.org/1999/xlink" x="0px" y="0px"
	 width="330px" height="93px" viewBox="0 0 330 93" enable-background="new 0 0 330 93" xml:space="preserve">
<title>help and info</title>
<path d="M165,5.208c17.668,0,31.992,14.323,31.992,31.992S182.668,69.191,165,69.191c-17.668,0-31.992-14.322-31.992-31.991
	S147.332,5.208,165,5.208 M165,0c-20.545,0-37.2,16.655-37.2,37.2c0,20.545,16.655,37.2,37.2,37.2s37.2-16.655,37.2-37.2
	C202.2,16.655,185.545,0,165,0L165,0z"/>
<path d="M169.277,42.609c0,2.976-0.059,5.952,0,8.928c0.031,2.33-1.833,4.242-4.163,4.273c-0.288,0.004-0.576-0.022-0.859-0.078
	c-0.383-0.061-0.76-0.16-1.123-0.297c-1.389-0.475-2.33-1.77-2.351-3.236c0-0.238,0-0.484,0-0.744c0-5.907,0-11.817,0-17.729
	c-0.083-1.793,1.031-3.425,2.73-4.003c1.807-0.696,3.856-0.11,5.022,1.436c0.497,0.653,0.759,1.456,0.743,2.277
	C169.277,36.491,169.277,39.548,169.277,42.609L169.277,42.609z"/>
<path d="M169.561,23.183c-0.013,2.519-2.064,4.55-4.584,4.537c-2.519-0.013-4.55-2.065-4.537-4.584
	c0.013-2.519,2.065-4.55,4.584-4.537c0.024,0,0.049,0,0.073,0.001C167.592,18.641,169.586,20.688,169.561,23.183z"/>
</svg>
