<?xml version="1.0" encoding="utf-8"?>
<!-- Generator: Adobe Illustrator 16.0.0, SVG Export Plug-In . SVG Version: 6.00 Build 0)  -->
<!DOCTYPE svg PUBLIC "-//W3C//DTD SVG 1.1//EN" "http://www.w3.org/Graphics/SVG/1.1/DTD/svg11.dtd">
<svg version="1.1"
	 id="Layer_1" xmlns:cc="http://creativecommons.org/ns#" xmlns:svg="http://www.w3.org/2000/svg" xmlns:sodipodi="http://sodipodi.sourceforge.net/DTD/sodipodi-0.dtd" xmlns:rdf="http://www.w3.org/1999/02/22-rdf-syntax-ns#" xmlns:dc="http://purl.org/dc/elements/1.1/" xmlns:inkscape="http://www.inkscape.org/namespaces/inkscape"
	 xmlns="http://www.w3.org/2000/svg" xmlns:xlink="http://www.w3.org/1999/xlink" x="0px" y="0px" width="330px" height="93px"
	 viewBox="0 0 330 93" enable-background="new 0 0 330 93" xml:space="preserve">
<g transform="translate(573.18486,-650.83736)">
	<path d="M-416.465,722.248v-2.989h15.672h15.671v-31.303v-31.303h-15.671h-15.672v-2.908v-2.908h18.58h18.579v37.2v37.2h-18.579
		h-18.58V722.248z M-429.814,695.449c-3.988-3.987-7.25-7.305-7.25-7.371c0-0.067,3.271-3.393,7.27-7.392l7.271-7.27l2.04,2.039
		l2.04,2.04l-3.836,3.837l-3.837,3.837h15.167h15.167v2.908v2.908h-15.167h-15.167l3.836,3.837l3.836,3.837l-2.019,2.02
		c-1.11,1.111-2.037,2.02-2.06,2.02S-425.827,699.437-429.814,695.449z"/>
</g>
</svg>
