<?xml version="1.0" encoding="utf-8"?>
<!-- Generator: Adobe Illustrator 16.0.0, SVG Export Plug-In . SVG Version: 6.00 Build 0)  -->
<!DOCTYPE svg PUBLIC "-//W3C//DTD SVG 1.1//EN" "http://www.w3.org/Graphics/SVG/1.1/DTD/svg11.dtd">
<svg version="1.1" id="Layer_1" xmlns="http://www.w3.org/2000/svg" xmlns:xlink="http://www.w3.org/1999/xlink" x="0px" y="0px"
	 width="110px" height="65px" viewBox="0 0 110 65" enable-background="new 0 0 110 65" xml:space="preserve">
<path fill-rule="evenodd" clip-rule="evenodd" fill="#FFFFFF" d="M93.68,38.225h15.007v3.799h-4.51v11.018H98.19V42.023H93.68
	V38.225L93.68,38.225z M85.506,47.367l1.818-4.715l1.775,4.715H85.506L85.506,47.367z M84.017,38.225h6.808l4.701,11.373
	l1.379,3.443h-5.617l-0.682-1.777h-6.507l-0.751,1.777h-6.151l5.194-11.318L84.017,38.225L84.017,38.225z M36.7,38.211h7.64
	c0.698,4.553,1.217,6.834,1.736,6.848c0.492,0,1.052-2.27,1.79-6.848h7.559v14.814h-4.962V43.76l-2.064,9.266h-4.891l-2.064-9.402
	v9.402H36.7V38.211L36.7,38.211z M26.121,37.951h0.287c1.422,0,2.708,0.207,3.828,0.629c1.121,0.424,2.05,1.01,2.788,1.736
	c0.738,0.736,1.298,1.557,1.667,2.461c0.37,0.912,0.547,1.855,0.547,2.828v0.232c0,0.971-0.219,1.914-0.616,2.828
	c-0.395,0.916-0.969,1.736-1.735,2.473c-0.779,0.727-1.722,1.299-2.843,1.725c-1.133,0.422-2.392,0.643-3.772,0.643h-0.709
	c-1.368,0-2.584-0.221-3.679-0.643c-1.079-0.438-1.994-1.025-2.732-1.764c-0.738-0.754-1.299-1.586-1.667-2.518
	c-0.368-0.939-0.561-1.896-0.561-2.881l-0.054-0.055c0-0.969,0.191-1.914,0.574-2.83c0.382-0.9,0.97-1.734,1.723-2.473
	c0.751-0.736,1.695-1.326,2.829-1.75c1.134-0.436,2.418-0.643,3.854-0.643H26.121L26.121,37.951z M22.855,45.018L22.855,45.018
	c0.191-0.957,0.587-1.68,1.146-2.174c0.588-0.492,1.23-0.738,1.941-0.738c0.562,0,1.12,0.152,1.64,0.439
	c0.519,0.285,0.957,0.695,1.284,1.215c0.315,0.52,0.479,1.121,0.479,1.791v0.342c0,0.725-0.149,1.379-0.464,1.928
	c-0.314,0.545-0.737,0.957-1.257,1.23c-0.505,0.285-1.065,0.422-1.64,0.422c-0.014,0-0.028-0.014-0.068-0.027
	c-0.028-0.014-0.055-0.025-0.068-0.025c-0.533-0.014-1.039-0.166-1.503-0.439c-0.452-0.273-0.833-0.684-1.107-1.229
	c-0.287-0.535-0.424-1.191-0.424-1.955c0-0.082,0-0.205,0.013-0.383C22.841,45.236,22.855,45.1,22.855,45.018L22.855,45.018
	L22.855,45.018z M1,38.211h9.444c1.217,0,2.228,0.191,3.035,0.615c0.806,0.422,1.393,1.025,1.776,1.693
	c0.368,0.67,0.561,1.396,0.561,2.146c0,0.916-0.232,1.777-0.738,2.543c-0.521,0.779-1.148,1.215-1.928,1.584l2.57,6.232H9.598
	l-2.939-8.348c0.573,0.123,1.216,0.133,1.448,0.148c0.629,0.027,1.175,0.027,1.559-0.26c0.382-0.275,0.559-0.779,0.559-1.135
	c0-0.34-0.123-0.738-0.422-1.012c-0.288-0.273-0.739-0.424-1.271-0.424H6.618v11.029H1V38.211L1,38.211z M79.656,33.988
	c1.546,0,2.802,1.258,2.802,2.814c0,1.545-1.256,2.805-2.802,2.805c-1.543,0-2.814-1.26-2.814-2.805
	C76.842,35.246,78.113,33.988,79.656,33.988L79.656,33.988L79.656,33.988z M79.656,34.275c1.396,0,2.529,1.135,2.529,2.527
	c0,1.381-1.134,2.529-2.529,2.529c-1.394,0-2.527-1.148-2.527-2.529C77.129,35.41,78.263,34.275,79.656,34.275L79.656,34.275
	L79.656,34.275z M79.179,37.076v1.326h-0.725v-3.32h1.299c0.327,0,0.615,0.066,0.847,0.219c0.233,0.137,0.354,0.41,0.354,0.779
	c0,0.164-0.026,0.314-0.095,0.438c-0.068,0.121-0.164,0.217-0.273,0.299c-0.109,0.07-0.218,0.137-0.341,0.18l0.888,1.406h-0.834
	l-0.848-1.326H79.179L79.179,37.076z M79.179,35.629h0.341c0.123,0,0.22,0.012,0.315,0.025c0.082,0.014,0.162,0.057,0.232,0.123
	c0.055,0.068,0.096,0.166,0.096,0.303c0,0.301-0.192,0.447-0.561,0.447h-0.424V35.629L79.179,35.629z M53.43,56.826L62.886,65
	c3.719-0.781,6.622-2.035,8.72-3.73c2.479-2.006,4.761-5.256,3.868-10.635c-0.585-3.523-4.389-7.371-3.812-11.672
	c0.553-4.123,5.345-6.862,8.447-6.478l-5.591-4.621c10.306-4.332,20.339-11.494,29.85-20.036
	C74.161,24.365,43.068,31.665,11.074,31.323c17.015,3.417,32.227,3.525,47.794,0.876c-0.423,0.819-0.725,1.692-0.915,2.635
	c-0.438,2.119,0.204,4.854,1.898,8.146c0.26,0.506,0.452,0.902,0.588,1.148c0.986,1.625,1.34,2.721,1.489,3.854
	c0.125,0.957,0.027,1.859-0.217,2.734c-0.452,1.627-1.272,2.734-2.611,3.977c-1.558,0.984-3.212,1.736-5.604,1.6L53.43,56.826
	L53.43,56.826z M3.966,29.982c35.946,1.777,70.62-6.395,104.106-25.598c0.15-0.137,0.492-0.341,0.642-0.479V1.158
	C75.611,21.427,40.869,28.767,1.137,27.428L1.124,29.71C2.148,29.86,2.915,29.901,3.966,29.982L3.966,29.982L3.966,29.982z"/>
</svg>
