<?xml version="1.0" encoding="utf-8"?>
<!-- Generator: Adobe Illustrator 16.0.0, SVG Export Plug-In . SVG Version: 6.00 Build 0)  -->
<!DOCTYPE svg PUBLIC "-//W3C//DTD SVG 1.1//EN" "http://www.w3.org/Graphics/SVG/1.1/DTD/svg11.dtd">
<svg version="1.1" id="Layer_1" xmlns="http://www.w3.org/2000/svg" xmlns:xlink="http://www.w3.org/1999/xlink" x="0px" y="0px"
	 width="330px" height="93px" viewBox="0 0 330 93" enable-background="new 0 0 330 93" xml:space="preserve">
<g>
	<path d="M194.389,58.627l-6.324-6.473V30.95c0-9.895-6.398-18.674-15.625-21.874C171.398,5.952,168.422,3.72,165,3.72
		c-3.422,0-6.398,2.232-7.44,5.356c-9.3,3.125-15.624,11.979-15.624,21.874v21.204l-6.25,6.398c-0.67,0.67-0.818,1.637-0.446,2.529
		c0.372,0.893,1.19,1.414,2.157,1.414h19.865c0,0.074,0,0.223,0,0.297c-0.148,4.391,3.422,7.887,7.738,7.887
		s7.887-3.496,7.887-7.887c0-0.074,0-0.223,0-0.297h19.864c0.894,0,1.786-0.521,2.157-1.414
		C195.207,60.264,194.983,59.297,194.389,58.627z M168.199,62.793c0,1.786-1.414,3.199-3.199,3.199
		c-1.786,0-3.199-1.413-3.199-3.199c0-0.074,0-0.223,0-0.297h6.547C168.273,62.645,168.199,62.719,168.199,62.793z M142.754,57.883
		l3.125-3.125c0.446-0.445,0.669-1.041,0.669-1.637V30.95c0-8.333,5.58-15.624,13.615-17.781c0.893-0.223,1.562-1.042,1.711-1.935
		c0.224-1.637,1.562-2.827,3.199-2.827s3.051,1.19,3.199,2.827c0.074,0.967,0.744,1.711,1.711,1.935
		c7.961,2.157,13.615,9.523,13.615,17.781v22.171c0,0.596,0.224,1.191,0.67,1.637l3.125,3.125H142.754L142.754,57.883z"/>
</g>
</svg>
