<?xml version="1.0" encoding="UTF-8" standalone="no"?>
<!-- Generator: Adobe Illustrator 16.0.0, SVG Export Plug-In . SVG Version: 6.00 Build 0)  -->

<svg
   xmlns:dc="http://purl.org/dc/elements/1.1/"
   xmlns:cc="http://creativecommons.org/ns#"
   xmlns:rdf="http://www.w3.org/1999/02/22-rdf-syntax-ns#"
   xmlns:svg="http://www.w3.org/2000/svg"
   xmlns="http://www.w3.org/2000/svg"
   xmlns:sodipodi="http://sodipodi.sourceforge.net/DTD/sodipodi-0.dtd"
   xmlns:inkscape="http://www.inkscape.org/namespaces/inkscape"
   version="1.1"
   id="Layer_1"
   x="0px"
   y="0px"
   width="54.459999"
   height="54.459"
   viewBox="0 0 54.459999 54.459"
   enable-background="new 0 0 330 93"
   xml:space="preserve"
   sodipodi:docname="ok.svg"
   inkscape:version="0.92.1 r15371"><metadata
     id="metadata3741"><rdf:RDF><cc:Work
         rdf:about=""><dc:format>image/svg+xml</dc:format><dc:type
           rdf:resource="http://purl.org/dc/dcmitype/StillImage" /></cc:Work></rdf:RDF></metadata><defs
     id="defs3739" /><sodipodi:namedview
     pagecolor="#ffffff"
     bordercolor="#666666"
     borderopacity="1"
     objecttolerance="10"
     gridtolerance="10"
     guidetolerance="10"
     inkscape:pageopacity="0"
     inkscape:pageshadow="2"
     inkscape:window-width="640"
     inkscape:window-height="480"
     id="namedview3737"
     showgrid="false"
     inkscape:zoom="1.1515152"
     inkscape:cx="12.032632"
     inkscape:cy="17.929"
     inkscape:window-x="0"
     inkscape:window-y="0"
     inkscape:window-maximized="0"
     inkscape:current-layer="Layer_1" /><g
     id="g3734"
     transform="translate(-137.77,-9.97)"><path
       d="M 192.23,37.2 C 192.23,22.171 180.029,9.97 165,9.97 c -15.029,0 -27.23,12.202 -27.23,27.23 0,15.028 12.202,27.229 27.23,27.229 15.029,0.001 27.23,-12.2 27.23,-27.229 z m -49.997,0 c 0,-12.574 10.193,-22.767 22.767,-22.767 12.574,0 22.767,10.193 22.767,22.767 0,12.573 -10.192,22.767 -22.767,22.767 -12.574,0 -22.767,-10.194 -22.767,-22.767 z"
       id="path3730"
       inkscape:connector-curvature="0" /><path
       d="m 177.201,27.454 -15.475,14.731 -8.854,-8.854 -3.125,3.125 10.416,10.416 c 0.446,0.446 1.042,0.669 1.562,0.669 0.521,0 1.116,-0.223 1.562,-0.595 l 17.038,-16.219 z"
       id="path3732"
       inkscape:connector-curvature="0" /></g></svg>