<?xml version="1.0" encoding="utf-8"?>
<!-- Generator: Adobe Illustrator 16.0.0, SVG Export Plug-In . SVG Version: 6.00 Build 0)  -->
<!DOCTYPE svg PUBLIC "-//W3C//DTD SVG 1.1//EN" "http://www.w3.org/Graphics/SVG/1.1/DTD/svg11.dtd">
<svg version="1.1"
	 id="Layer_1" xmlns:cc="http://creativecommons.org/ns#" xmlns:svg="http://www.w3.org/2000/svg" xmlns:sodipodi="http://sodipodi.sourceforge.net/DTD/sodipodi-0.dtd" xmlns:rdf="http://www.w3.org/1999/02/22-rdf-syntax-ns#" xmlns:dc="http://purl.org/dc/elements/1.1/" xmlns:inkscape="http://www.inkscape.org/namespaces/inkscape"
	 xmlns="http://www.w3.org/2000/svg" xmlns:xlink="http://www.w3.org/1999/xlink" x="0px" y="0px" width="330px" height="93px"
	 viewBox="0 0 330 93" enable-background="new 0 0 330 93" xml:space="preserve">
<path d="M198.836,48.424c-5.697-2.578-10.14-4.01-17.596-5.675c-0.377-0.083-0.781-0.125-1.246-0.125
	c-0.444,0-4.381,0.067-5.938,2.501l-3.445,5.533c-0.025,0.014-0.138,0.046-0.32,0.046c-0.531,0-1.188-0.247-1.771-0.673
	c-2.988-2.172-5.96-4.705-8.794-7.491c-2.825-2.882-5.371-5.86-7.555-8.858c-0.737-1.009-0.717-1.896-0.769-1.934l5.662-3.593
	c2.29-1.441,2.834-5.55,2.37-7.309c-1.608-6.076-3.814-12.403-5.56-17.239C152.891,0.881,149,0,147.273,0
	c-0.762,0-1.47,0.125-2.088,0.365c-5.121,1.986-9.688,4.958-13.579,8.843c-1.057,1.06-2.072,2.213-3.097,3.517l-0.663,0.839
	l-0.032,1.07c-0.352,14.601,6.21,29.736,17.996,41.51l0.231,0.242c11.446,11.446,26.19,18.016,40.452,18.016h0.006l2.14-0.042
	l0.833-0.653c1.265-0.99,2.452-2.033,3.535-3.113c3.878-3.881,6.851-8.448,8.827-13.56
	C202.957,54.152,201.356,49.566,198.836,48.424z M188.479,66.066c-0.663,0.656-1.377,1.304-2.127,1.932
	c-12.531-0.049-25.56-5.922-35.693-16.045l-0.313-0.32c-10.107-10.111-16.087-23.408-16.138-35.777
	c0.637-0.769,1.274-1.467,1.921-2.12c3.254-3.248,7.075-5.736,11.142-7.331c0.244,0,0.593,0.086,0.868,0.186
	c1.643,4.593,3.641,10.37,5.047,15.635c0.013,0.192-0.051,0.583-0.125,0.881l-5.066,3.212c-1.432,0.887-2.415,2.357-2.764,4.138
	c-0.448,2.302,0.195,4.858,1.765,7.004c2.367,3.251,5.118,6.473,8.202,9.611c3.094,3.045,6.31,5.787,9.544,8.135
	c3.811,2.789,9.121,2.276,11.128-0.975l3.217-5.076c0.262-0.07,0.586-0.125,0.749-0.156c6.7,1.496,10.771,2.78,15.725,4.983
	c0.138,0.317,0.263,0.701,0.301,0.733C194.201,59.002,191.713,62.822,188.479,66.066z"/>
</svg>
