<?xml version="1.0" encoding="UTF-8" standalone="no"?>
<!-- Generator: Adobe Illustrator 16.0.0, SVG Export Plug-In . SVG Version: 6.00 Build 0)  -->

<svg
   xmlns:dc="http://purl.org/dc/elements/1.1/"
   xmlns:cc="http://creativecommons.org/ns#"
   xmlns:rdf="http://www.w3.org/1999/02/22-rdf-syntax-ns#"
   xmlns:svg="http://www.w3.org/2000/svg"
   xmlns="http://www.w3.org/2000/svg"
   xmlns:sodipodi="http://sodipodi.sourceforge.net/DTD/sodipodi-0.dtd"
   xmlns:inkscape="http://www.inkscape.org/namespaces/inkscape"
   version="1.1"
   id="Layer_1"
   x="0px"
   y="0px"
   width="22.965002"
   height="26.145918"
   viewBox="0 0 22.965002 26.145918"
   enable-background="new 0 0 330 93"
   xml:space="preserve"
   sodipodi:docname="refresh.svg"
   inkscape:version="0.92.1 r15371"><metadata
     id="metadata3689"><rdf:RDF><cc:Work
         rdf:about=""><dc:format>image/svg+xml</dc:format><dc:type
           rdf:resource="http://purl.org/dc/dcmitype/StillImage" /></cc:Work></rdf:RDF></metadata><defs
     id="defs3687" /><sodipodi:namedview
     pagecolor="#ffffff"
     bordercolor="#666666"
     borderopacity="1"
     objecttolerance="10"
     gridtolerance="10"
     guidetolerance="10"
     inkscape:pageopacity="0"
     inkscape:pageshadow="2"
     inkscape:window-width="1920"
     inkscape:window-height="1017"
     id="namedview3685"
     showgrid="false"
     inkscape:zoom="5.2424242"
     inkscape:cx="11.481003"
     inkscape:cy="18.849116"
     inkscape:window-x="-8"
     inkscape:window-y="-8"
     inkscape:window-maximized="1"
     inkscape:current-layer="Layer_1" /><path
     inkscape:connector-curvature="0"
     d="m 13.157,20.903917 c -0.453,-0.417 -1.16,-0.387 -1.576,0.068 l -1.581,1.724 c -0.2,0.218 -0.305,0.507 -0.293,0.802 0.013,0.296 0.143,0.574 0.361,0.775 l 1.724,1.58 c 0.214,0.195 0.484,0.293 0.753,0.293 0.303,0 0.604,-0.122 0.823,-0.362 0.384,-0.417 0.37,-1.038 0.016,-1.462 5.427,-0.91 9.581,-5.629 9.581,-11.312 0,-4.402 -2.453,-8.349 -6.402,-10.301 -0.551,-0.273 -1.222,-0.046 -1.495,0.506 -0.272,0.553 -0.046,1.222 0.507,1.495 3.182,1.573 5.158,4.753 5.158,8.3 0,4.421 -3.118,8.122 -7.27,9.033 0.118,-0.396 0.02,-0.841 -0.306,-1.139 z"
     id="path3680" /><path
     inkscape:connector-curvature="0"
     d="m 6.248,23.234917 c 0.164,0.084 0.337,0.123 0.509,0.123 0.405,0 0.796,-0.221 0.994,-0.607 0.281,-0.548 0.064,-1.221 -0.484,-1.502 -3.108,-1.593 -5.038,-4.75 -5.038,-8.238 0,-4.487 3.211,-8.235 7.457,-9.074 -0.211,0.453 -0.101,1.007 0.305,1.336 0.207,0.168 0.456,0.25 0.703,0.25 0.325,0 0.646,-0.141 0.868,-0.413 l 1.475,-1.816 c 0.186,-0.23 0.273,-0.524 0.242,-0.819 -0.029,-0.294 -0.177,-0.564 -0.406,-0.751 l -1.816,-1.474 c -0.479,-0.389 -1.181,-0.316 -1.57,0.164 -0.312,0.385 -0.321,0.914 -0.064,1.309 -5.351,0.975 -9.423,5.661 -9.423,11.289 -0.003,4.329 2.393,8.247 6.248,10.223 z"
     id="path3682" /></svg>