<?xml version="1.0" encoding="utf-8"?>
<!-- Generator: Adobe Illustrator 16.0.0, SVG Export Plug-In . SVG Version: 6.00 Build 0)  -->
<!DOCTYPE svg PUBLIC "-//W3C//DTD SVG 1.1//EN" "http://www.w3.org/Graphics/SVG/1.1/DTD/svg11.dtd">
<svg version="1.1"
	 id="Layer_1" xmlns:rdf="http://www.w3.org/1999/02/22-rdf-syntax-ns#" xmlns:dc="http://purl.org/dc/elements/1.1/" xmlns:cc="http://creativecommons.org/ns#" xmlns:svg="http://www.w3.org/2000/svg" xmlns:inkscape="http://www.inkscape.org/namespaces/inkscape" xmlns:sodipodi="http://sodipodi.sourceforge.net/DTD/sodipodi-0.dtd"
	 xmlns="http://www.w3.org/2000/svg" xmlns:xlink="http://www.w3.org/1999/xlink" x="0px" y="0px" width="68.45px"
	 height="31.249px" viewBox="130.775 21.576 68.45 31.249" enable-background="new 130.775 21.576 68.45 31.249"
	 xml:space="preserve">
<g transform="translate(0,-952.36218)">
	<path d="M146.4,973.938c5.933,0,11.095,3.313,13.741,8.184h31.644l7.439,6.696l-9.672,8.184l-4.465-4.464l-4.464,4.464
		l-4.464-4.464l-4.465,4.464H160.14c-2.646,4.87-7.808,8.185-13.741,8.185c-8.629,0-15.624-6.996-15.624-15.625
		C130.776,980.933,137.771,973.938,146.4,973.938z M140.448,985.842c-2.055,0-3.72,1.666-3.72,3.72c0,2.054,1.666,3.72,3.72,3.72
		c2.054,0,3.72-1.666,3.72-3.72C144.168,987.508,142.502,985.842,140.448,985.842z"/>
</g>
</svg>
