<?xml version="1.0" encoding="utf-8"?>
<!-- Generator: Adobe Illustrator 16.0.0, SVG Export Plug-In . SVG Version: 6.00 Build 0)  -->
<!DOCTYPE svg PUBLIC "-//W3C//DTD SVG 1.1//EN" "http://www.w3.org/Graphics/SVG/1.1/DTD/svg11.dtd">
<svg version="1.1" id="Layer_1" xmlns="http://www.w3.org/2000/svg" xmlns:xlink="http://www.w3.org/1999/xlink" x="0px" y="0px"
	 width="330px" height="93px" viewBox="0 0 330 93" enable-background="new 0 0 330 93" xml:space="preserve">
<path d="M186.65,56.693l-11.979-11.979c5.878-6.994,5.58-17.41-0.967-23.957c-6.92-6.919-18.154-6.919-25.073,0
	c-6.919,6.919-6.919,18.153,0,25.073c3.422,3.422,8.035,5.208,12.574,5.208c4.092,0,8.11-1.414,11.458-4.167l11.979,11.979
	L186.65,56.693z M150.715,43.747c-5.729-5.729-5.729-15.103,0-20.832c2.901-2.901,6.622-4.315,10.416-4.315
	s7.589,1.414,10.416,4.315c5.729,5.729,5.729,15.104,0,20.832C165.818,49.477,156.444,49.477,150.715,43.747z"/>
</svg>
