<?xml version="1.0" encoding="utf-8"?>
<!-- Generator: Adobe Illustrator 16.0.0, SVG Export Plug-In . SVG Version: 6.00 Build 0)  -->
<!DOCTYPE svg PUBLIC "-//W3C//DTD SVG 1.1//EN" "http://www.w3.org/Graphics/SVG/1.1/DTD/svg11.dtd">
<svg version="1.1" id="Layer_1" xmlns="http://www.w3.org/2000/svg" xmlns:xlink="http://www.w3.org/1999/xlink" x="0px" y="0px"
	 width="58.848px" height="49.395px" viewBox="135.575 12.504 58.848 49.395" enable-background="new 135.575 12.504 58.848 49.395"
	 xml:space="preserve">
<path d="M194.334,15.024c-0.479-2.295-1.736-2.989-3.986-2.219c-0.328,0.111-0.668,0.186-1.007,0.277
	c-1.255,0.517-2.499,1.073-3.769,1.549c-2.117,0.797-4.254,1.544-6.379,2.312c-1.301,0.541-2.594,1.106-3.904,1.62
	c-3.281,1.283-6.572,2.542-9.864,3.813c-6.77,2.608-13.542,5.219-20.312,7.829c-1.524,0.587-3.059,1.145-4.567,1.769
	c-1.321,0.549-2.672,1.073-3.891,1.81c-0.544,0.325-1.134,1.176-1.076,1.718c0.062,0.548,0.898,1.014,1.407,1.503
	c0.095,0.089,0.254,0.118,0.389,0.159c3.588,1.111,7.179,2.219,10.769,3.329c-0.017,0.376,0.023,0.759,0.14,1.134l1.309,4.19
	l1.717,5.496c0.202,0.64,0.402,1.263,0.602,1.891c0.49,1.527,0.995,3.109,1.457,4.66c1.003,3.354,3.715,3.613,4.521,3.613
	c0.124,0,0.249-0.009,0.375-0.016c0.124,0.008,0.248,0.016,0.372,0.016c2.072,0,3.401-1.146,4.193-1.828
	c0.147-0.125,0.288-0.246,0.39-0.323c0.162-0.122,0.312-0.255,0.452-0.404c0.098-0.108,0.196-0.215,0.294-0.327
	c0.166-0.183,0.325-0.355,0.464-0.494c1.201-1.195,2.408-2.384,3.613-3.57l1.428-1.411c0.205,0.138,0.407,0.274,0.61,0.415
	c3.257,2.432,6.507,4.871,9.774,7.29c2.438,1.808,4.143,1.336,5.324-1.419c0.5-2.324,1-4.65,1.5-6.975
	c0.453-2.314,0.907-4.627,1.36-6.938c0.288-1.272,0.577-2.546,0.869-3.818c0.757-3.581,1.518-7.162,2.274-10.744
	c0.244-1.143,0.488-2.285,0.731-3.428c0.063-0.272,0.13-0.543,0.188-0.819c0.774-3.677,1.547-7.355,2.319-11.034
	C194.396,15.439,194.375,15.229,194.334,15.024z M162.109,55.76c-0.143,0.143-0.275,0.295-0.412,0.445l0.072-0.999
	c0.176-2.419,0.353-4.839,0.535-7.257c1.466,1.093,2.931,2.185,4.397,3.271C165.169,52.734,163.637,54.246,162.109,55.76z
	 M183.244,22.639c-3.127,2.888-6.276,5.755-9.432,8.612c-2.48,2.239-5.002,4.434-7.476,6.683c-0.97,0.881-1.929,1.776-2.882,2.67
	c-0.353,0.328-0.703,0.66-1.057,0.992c-0.616,0.578-1.229,1.156-1.846,1.735c-0.128,0.13-0.256,0.264-0.382,0.399
	c-0.093,0.085-0.185,0.17-0.275,0.258c-0.257,0.27-0.514,0.537-0.771,0.805c-0.148,0.151-0.334,0.615,0.089,0.853
	c-0.055,0.438-0.104,0.875-0.138,1.312c-0.283,3.731-0.548,7.463-0.821,11.19c-0.992,0.172-1.461-0.317-1.734-1.229
	c-0.658-2.208-1.378-4.395-2.073-6.592c-0.973-3.118-1.947-6.239-2.921-9.356c0.166-0.072,0.332-0.148,0.481-0.243
	c7.45-4.692,14.888-9.4,22.337-14.096c2.592-1.633,5.184-3.268,7.819-4.833c0.442-0.262,1.101-0.169,1.657-0.244
	C183.623,21.909,183.477,22.319,183.244,22.639z"/>
</svg>
