<?xml version="1.0" encoding="utf-8"?>
<!-- Generator: Adobe Illustrator 16.0.0, SVG Export Plug-In . SVG Version: 6.00 Build 0)  -->
<!DOCTYPE svg PUBLIC "-//W3C//DTD SVG 1.1//EN" "http://www.w3.org/Graphics/SVG/1.1/DTD/svg11.dtd">
<svg version="1.1" id="Layer_5" xmlns="http://www.w3.org/2000/svg" xmlns:xlink="http://www.w3.org/1999/xlink" x="0px" y="0px"
	 width="512px" height="512px" viewBox="0 0 512 512" enable-background="new 0 0 512 512" xml:space="preserve">
<path d="M153.465,12.036c24.727,0,47.933,6.464,68.067,17.756c10.994-1.636,22.24-2.493,33.689-2.493
	c125.321,0,226.915,101.592,226.915,226.915c0,11.99-0.937,23.761-2.729,35.247c13.324,21.371,21.045,46.594,21.045,73.631
	c0,76.992-62.413,139.405-139.405,139.405c-28.46,0-54.914-8.546-76.974-23.188c-9.448,1.199-19.077,1.819-28.852,1.819
	c-125.324,0-226.916-101.591-226.916-226.915c0-12.211,0.978-24.193,2.835-35.88c-10.884-19.86-17.081-42.651-17.081-66.894
	C14.06,74.449,76.473,12.036,153.465,12.036 M153.465,32.036c-31.895,0-61.88,12.42-84.433,34.973
	C46.48,89.561,34.06,119.546,34.06,151.441c0,20.021,5.056,39.83,14.62,57.282l3.286,5.997l-1.073,6.754
	c-1.716,10.801-2.587,21.817-2.587,32.741c0,27.943,5.468,55.039,16.252,80.536c10.42,24.637,25.343,46.767,44.352,65.775
	c19.009,19.01,41.14,33.932,65.777,44.352c25.497,10.784,52.593,16.252,80.536,16.252c8.794,0,17.654-0.559,26.333-1.66l7.379-0.937
	l6.198,4.113c19.566,12.986,42.359,19.852,65.914,19.852c31.896,0,61.88-12.42,84.434-34.973
	c22.553-22.554,34.973-52.538,34.973-84.434c0-22.343-6.23-44.145-18.017-63.05l-3.938-6.313l1.147-7.353
	c1.651-10.585,2.489-21.405,2.489-32.162c0-27.942-5.468-55.038-16.252-80.535c-10.421-24.637-25.343-46.768-44.353-65.777
	c-19.009-19.009-41.14-33.931-65.776-44.352c-25.496-10.784-52.592-16.252-80.534-16.252c-10.258,0-20.602,0.765-30.745,2.275
	l-6.763,1.006l-5.964-3.345C194.019,37.292,173.864,32.036,153.465,32.036z"/>
<path d="M242.831,221.786l47.3,10.684c43.271,9.882,64.908,33.661,64.908,71.336c0,23.437-8.489,42.045-25.463,55.83
	c-17.893,14.938-43.356,22.4-76.393,22.4c-32.806,0-58.959-7.118-78.456-21.365c-16.745-11.944-25.118-25.729-25.118-41.355
	c0-6.894,2.233-12.521,6.7-16.887c4.467-4.363,10.137-6.549,17.015-6.549c8.016,0,15.229,3.91,21.648,11.718
	c10.31,12.641,16.611,19.764,18.904,21.366c9.851,7.815,22.906,11.718,39.176,11.718c13.974,0,25.199-3.445,33.681-10.34
	c7.791-6.203,11.685-13.667,11.685-22.398c0-13.097-8.062-21.712-24.17-25.849l-63.872-16.197
	c-40.514-10.338-60.766-32.964-60.766-67.892c0-25.502,10.471-45.027,31.418-58.586c17.954-11.485,40.509-17.231,67.672-17.231
	c23.479,0,45.11,5.514,64.909,16.542c20.941,11.717,31.418,25.502,31.418,41.354c0,6.893-2.533,12.354-7.596,16.371
	c-5.066,4.021-11.167,6.031-18.297,6.031c-6.906,0-13.354-3.216-19.336-9.65c-9.21-9.875-15.191-15.734-17.952-17.576
	c-9.442-6.428-21.754-9.649-36.945-9.649c-12.893,0-22.906,2.703-30.038,8.099c-7.137,5.4-10.703,12.465-10.703,21.195
	C204.161,207.086,217.05,216.046,242.831,221.786z"/>
</svg>
