<?xml version="1.0" encoding="utf-8"?>
<!-- Generator: Adobe Illustrator 16.0.0, SVG Export Plug-In . SVG Version: 6.00 Build 0)  -->
<!DOCTYPE svg PUBLIC "-//W3C//DTD SVG 1.1//EN" "http://www.w3.org/Graphics/SVG/1.1/DTD/svg11.dtd">
<svg version="1.1"
	 id="Layer_1" xmlns:cc="http://creativecommons.org/ns#" xmlns:svg="http://www.w3.org/2000/svg" xmlns:sodipodi="http://sodipodi.sourceforge.net/DTD/sodipodi-0.dtd" xmlns:rdf="http://www.w3.org/1999/02/22-rdf-syntax-ns#" xmlns:dc="http://purl.org/dc/elements/1.1/" xmlns:inkscape="http://www.inkscape.org/namespaces/inkscape"
	 xmlns="http://www.w3.org/2000/svg" xmlns:xlink="http://www.w3.org/1999/xlink" x="0px" y="0px" width="330px" height="93px"
	 viewBox="0 0 330 93" enable-background="new 0 0 330 93" xml:space="preserve">
<g transform="translate(0,-952.36218)">
	<path d="M165,956.082c-18.464,0-33.48,15.016-33.48,33.48c0,18.464,15.016,33.479,33.48,33.479s33.48-15.016,33.48-33.479
		C198.48,971.098,183.464,956.082,165,956.082z M165,960.546c16.052,0,29.016,12.964,29.016,29.016c0,7.353-2.739,14.05-7.23,19.157
		c-3.144-9.002-11.716-15.438-21.785-15.438s-18.642,6.436-21.785,15.438c-4.491-5.107-7.231-11.805-7.231-19.157
		C135.984,973.511,148.948,960.546,165,960.546z M165,962.778c-7.131,0-12.648,6.506-12.648,14.136S157.869,991.05,165,991.05
		c7.131,0,12.648-6.506,12.648-14.136S172.131,962.778,165,962.778z M165,967.242c4.374,0,8.184,4.153,8.184,9.672
		c0,5.519-3.81,9.672-8.184,9.672s-8.184-4.153-8.184-9.672C156.816,971.395,160.626,967.242,165,967.242z M165,997.746
		c8.926,0,16.277,6.146,18.135,14.462c-4.965,3.979-11.262,6.37-18.135,6.37s-13.169-2.392-18.135-6.37
		C148.723,1003.891,156.074,997.746,165,997.746z"/>
</g>
</svg>
